{"asset":{"version":"2.0","generator":"basher gen-anim-cubic-rot-fixture"},"scenes":[{"nodes":[1]}],"scene":0,"nodes":[{"name":"Cube","mesh":0,"translation":[1,0,0]},{"name":"Pivot","children":[0],"translation":[0,3,0]}],"bufferViews":[{"buffer":0,"byteOffset":0,"byteLength":288,"target":34962,"byteStride":12},{"buffer":0,"byteOffset":288,"byteLength":288,"target":34962,"byteStride":12},{"buffer":0,"byteOffset":576,"byteLength":192,"target":34962,"byteStride":8},{"buffer":0,"byteOffset":768,"byteLength":72,"target":34963},{"buffer":0,"byteOffset":840,"byteLength":12},{"buffer":0,"byteOffset":852,"byteLength":144}],"buffers":[{"byteLength":996,"uri":"data:application/octet-stream;base64,"}],"accessors":[{"bufferView":0,"componentType":5126,"count":24,"max":[0.5,0.5,0.5],"min":[-0.5,-0.5,-0.5],"type":"VEC3"},{"bufferView":1,"componentType":5126,"count":24,"max":[1,1,1],"min":[-1,-1,-1],"type":"VEC3"},{"bufferView":2,"componentType":5126,"count":24,"max":[1,1],"min":[0,0],"type":"VEC2"},{"bufferView":3,"componentType":5123,"count":36,"max":[23],"min":[0],"type":"SCALAR"},{"bufferView":4,"componentType":5126,"count":3,"type":"SCALAR","min":[0],"max":[1.5]},{"bufferView":5,"componentType":5126,"count":9,"type":"VEC4"}],"materials":[{"pbrMetallicRoughness":{"baseColorFactor":[0.10224173307914941,0.8713671191959567,0.19461783043107173,1],"metallicFactor":0,"roughnessFactor":0.5}}],"meshes":[{"primitives":[{"mode":4,"attributes":{"POSITION":0,"NORMAL":1,"TEXCOORD_0":2},"indices":3,"material":0}]}],"animations":[{"name":"SplineSpin","samplers":[{"input":4,"output":5,"interpolation":"CUBICSPLINE"}],"channels":[{"sampler":0,"target":{"node":0,"path":"rotation"}}]}]}