{"asset":{"version":"2.0","generator":"THREE.GLTFExporter r169"},"scenes":[{"nodes":[0]}],"scene":0,"nodes":[{"name":"cone","mesh":0}],"bufferViews":[{"buffer":0,"byteOffset":0,"byteLength":1188,"target":34962,"byteStride":12},{"buffer":0,"byteOffset":1188,"byteLength":1188,"target":34962,"byteStride":12},{"buffer":0,"byteOffset":2376,"byteLength":792,"target":34962,"byteStride":8},{"buffer":0,"byteOffset":3168,"byteLength":288,"target":34963}],"buffers":[{"byteLength":3456,"uri":"data:application/octet-stream;base64,"}],"accessors":[{"bufferView":0,"componentType":5126,"count":99,"max":[0.6000000238418579,0.6000000238418579,0.6000000238418579],"min":[-0.6000000238418579,-0.6000000238418579,-0.6000000238418579],"type":"VEC3"},{"bufferView":1,"componentType":5126,"count":99,"max":[0.8944271802902222,0.4472135901451111,0.8944271802902222],"min":[-0.8944271802902222,-1,-0.8944271802902222],"type":"VEC3"},{"bufferView":2,"componentType":5126,"count":99,"max":[1,1],"min":[0,0],"type":"VEC2"},{"bufferView":3,"componentType":5123,"count":144,"max":[98],"min":[1],"type":"SCALAR"}],"materials":[{"pbrMetallicRoughness":{"baseColorFactor":[1,0.2541520943200296,0.10224173307914941,1],"metallicFactor":0,"roughnessFactor":0.5}}],"meshes":[{"primitives":[{"mode":4,"attributes":{"POSITION":0,"NORMAL":1,"TEXCOORD_0":2},"indices":3,"material":0}]}]}