{"asset": {"version": "2.0", "generator": "basher-fixture-gen (cutout alphaMode MASK)"}, "scene": 0, "scenes": [{"nodes": [0]}], "nodes": [{"mesh": 0, "name": "CutoutQuad"}], "meshes": [{"primitives": [{"attributes": {"POSITION": 0, "TEXCOORD_0": 1}, "indices": 2, "material": 0}]}], "materials": [{"name": "CutoutMat", "alphaMode": "MASK", "alphaCutoff": 0.5, "pbrMetallicRoughness": {"baseColorTexture": {"index": 0}, "metallicFactor": 0.0, "roughnessFactor": 0.9}}], "textures": [{"sampler": 0, "source": 0}], "images": [{"uri": "data:image/png;base64,"}], "samplers": [{"wrapS": 10497, "wrapT": 10497}], "buffers": [{"uri": "data:application/octet-stream;base64,", "byteLength": 92}], "bufferViews": [{"buffer": 0, "byteOffset": 0, "byteLength": 48, "target": 34962}, {"buffer": 0, "byteOffset": 48, "byteLength": 32, "target": 34962}, {"buffer": 0, "byteOffset": 80, "byteLength": 12, "target": 34963}], "accessors": [{"bufferView": 0, "componentType": 5126, "count": 4, "type": "VEC3", "min": [-1, -1, 0], "max": [1, 1, 0]}, {"bufferView": 1, "componentType": 5126, "count": 4, "type": "VEC2"}, {"bufferView": 2, "componentType": 5123, "count": 6, "type": "SCALAR"}]}