{"asset": {"version": "2.0", "generator": "basher-iridescence-fixture"}, "scene": 0, "scenes": [{"nodes": [0]}], "nodes": [{"mesh": 0, "name": "SheenQuad"}], "extensionsUsed": ["KHR_materials_iridescence"], "meshes": [{"primitives": [{"attributes": {"POSITION": 0, "TEXCOORD_0": 1, "TEXCOORD_1": 1}, "indices": 2, "material": 0}]}], "materials": [{"name": "IridescentMat", "pbrMetallicRoughness": {"baseColorFactor": [0.8, 0.2, 0.2, 1], "metallicFactor": 0, "roughnessFactor": 0.6}, "extensions": {"KHR_materials_iridescence": {"iridescenceFactor": 1, "iridescenceIor": 1.3, "iridescenceThicknessMaximum": 400}}}], "buffers": [{"uri": "data:application/octet-stream;base64,", "byteLength": 92}], "bufferViews": [{"buffer": 0, "byteOffset": 0, "byteLength": 48}, {"buffer": 0, "byteOffset": 48, "byteLength": 32}, {"buffer": 0, "byteOffset": 80, "byteLength": 12}], "accessors": [{"bufferView": 0, "componentType": 5126, "count": 4, "type": "VEC3", "min": [-0.5, -0.5, 0], "max": [0.5, 0.5, 0]}, {"bufferView": 1, "componentType": 5126, "count": 4, "type": "VEC2", "min": [0, 0], "max": [1, 1]}, {"bufferView": 2, "componentType": 5123, "count": 6, "type": "SCALAR"}]}