{"asset":{"version":"2.0","generator":"basher gen-mesh-parent-fixture"},"scenes":[{"nodes":[0]}],"scene":0,"nodes":[{"name":"Body","mesh":0,"translation":[0,1,0],"rotation":[0,0.7071067811865476,0,0.7071067811865476],"scale":[2,2,2],"children":[1,2]},{"name":"Lamp","mesh":0,"translation":[1,0.5,0],"scale":[0.25,0.25,0.25]},{"name":"Socket","translation":[-1,0,0],"children":[3]},{"name":"Bulb","mesh":0,"translation":[0,0.5,0],"scale":[0.2,0.2,0.2]}],"bufferViews":[{"buffer":0,"byteOffset":0,"byteLength":288,"target":34962,"byteStride":12},{"buffer":0,"byteOffset":288,"byteLength":288,"target":34962,"byteStride":12},{"buffer":0,"byteOffset":576,"byteLength":192,"target":34962,"byteStride":8},{"buffer":0,"byteOffset":768,"byteLength":72,"target":34963}],"buffers":[{"byteLength":840,"uri":"data:application/octet-stream;base64,"}],"accessors":[{"bufferView":0,"componentType":5126,"count":24,"max":[0.5,0.5,0.5],"min":[-0.5,-0.5,-0.5],"type":"VEC3"},{"bufferView":1,"componentType":5126,"count":24,"max":[1,1,1],"min":[-1,-1,-1],"type":"VEC3"},{"bufferView":2,"componentType":5126,"count":24,"max":[1,1],"min":[0,0],"type":"VEC2"},{"bufferView":3,"componentType":5123,"count":36,"max":[23],"min":[0],"type":"SCALAR"}],"materials":[{"pbrMetallicRoughness":{"baseColorFactor":[0.10224173307914941,0.8713671191959567,0.19461783043107173,1],"metallicFactor":0,"roughnessFactor":0.5}}],"meshes":[{"primitives":[{"mode":4,"attributes":{"POSITION":0,"NORMAL":1,"TEXCOORD_0":2},"indices":3,"material":0}]}]}