{"asset":{"version":"2.0","generator":"THREE.GLTFExporter r169"},"scenes":[{"nodes":[0]}],"scene":0,"nodes":[{"name":"sphere","mesh":0}],"bufferViews":[{"buffer":0,"byteOffset":0,"byteLength":5100,"target":34962,"byteStride":12},{"buffer":0,"byteOffset":5100,"byteLength":5100,"target":34962,"byteStride":12},{"buffer":0,"byteOffset":10200,"byteLength":3400,"target":34962,"byteStride":8},{"buffer":0,"byteOffset":13600,"byteLength":4320,"target":34963}],"buffers":[{"byteLength":17920,"uri":"data:application/octet-stream;base64,"}],"accessors":[{"bufferView":0,"componentType":5126,"count":425,"max":[0.6000000238418579,0.6000000238418579,0.6000000238418579],"min":[-0.6000000238418579,-0.6000000238418579,-0.6000000238418579],"type":"VEC3"},{"bufferView":1,"componentType":5126,"count":425,"max":[1,1,1],"min":[-1,-1,-1],"type":"VEC3"},{"bufferView":2,"componentType":5126,"count":425,"max":[1.0208333730697632,1],"min":[-0.02083333395421505,0],"type":"VEC2"},{"bufferView":3,"componentType":5123,"count":2160,"max":[424],"min":[0],"type":"SCALAR"}],"materials":[{"pbrMetallicRoughness":{"baseColorFactor":[0.19461783043107173,0.4019777798219466,1,1],"metallicFactor":0,"roughnessFactor":0.5}}],"meshes":[{"primitives":[{"mode":4,"attributes":{"POSITION":0,"NORMAL":1,"TEXCOORD_0":2},"indices":3,"material":0}]}]}