{
 "asset": {
  "version": "2.0",
  "generator": "q1154_two_clips_oracle.py"
 },
 "scene": 0,
 "scenes": [
  {
   "nodes": [
    0,
    1
   ]
  }
 ],
 "nodes": [
  {
   "name": "A",
   "translation": [
    0,
    0,
    0
   ],
   "children": [
    2
   ]
  },
  {
   "name": "B",
   "translation": [
    0,
    0,
    -2
   ],
   "mesh": 0
  },
  {
   "name": "C",
   "translation": [
    0,
    1,
    0
   ]
  }
 ],
 "meshes": [
  {
   "name": "Tri",
   "primitives": [
    {
     "attributes": {
      "POSITION": 5
     }
    }
   ]
  }
 ],
 "animations": [
  {
   "name": "Slide",
   "samplers": [
    {
     "input": 0,
     "output": 1,
     "interpolation": "LINEAR"
    }
   ],
   "channels": [
    {
     "sampler": 0,
     "target": {
      "node": 0,
      "path": "translation"
     }
    }
   ]
  },
  {
   "name": "Lift",
   "samplers": [
    {
     "input": 0,
     "output": 2,
     "interpolation": "LINEAR"
    },
    {
     "input": 0,
     "output": 3,
     "interpolation": "LINEAR"
    }
   ],
   "channels": [
    {
     "sampler": 0,
     "target": {
      "node": 1,
      "path": "translation"
     }
    },
    {
     "sampler": 1,
     "target": {
      "node": 0,
      "path": "rotation"
     }
    }
   ]
  },
  {
   "name": "Slide",
   "samplers": [
    {
     "input": 0,
     "output": 4,
     "interpolation": "LINEAR"
    }
   ],
   "channels": [
    {
     "sampler": 0,
     "target": {
      "node": 2,
      "path": "scale"
     }
    }
   ]
  }
 ],
 "accessors": [
  {
   "bufferView": 0,
   "componentType": 5126,
   "count": 3,
   "type": "SCALAR",
   "min": [
    0.0
   ],
   "max": [
    1.0
   ]
  },
  {
   "bufferView": 1,
   "componentType": 5126,
   "count": 3,
   "type": "VEC3"
  },
  {
   "bufferView": 2,
   "componentType": 5126,
   "count": 3,
   "type": "VEC3"
  },
  {
   "bufferView": 3,
   "componentType": 5126,
   "count": 3,
   "type": "VEC4"
  },
  {
   "bufferView": 4,
   "componentType": 5126,
   "count": 3,
   "type": "VEC3"
  },
  {
   "bufferView": 5,
   "componentType": 5126,
   "count": 3,
   "type": "VEC3",
   "min": [
    0.0,
    0.0,
    0.0
   ],
   "max": [
    0.5,
    0.5,
    0.0
   ]
  }
 ],
 "bufferViews": [
  {
   "buffer": 0,
   "byteOffset": 0,
   "byteLength": 12
  },
  {
   "buffer": 0,
   "byteOffset": 12,
   "byteLength": 36
  },
  {
   "buffer": 0,
   "byteOffset": 48,
   "byteLength": 36
  },
  {
   "buffer": 0,
   "byteOffset": 84,
   "byteLength": 48
  },
  {
   "buffer": 0,
   "byteOffset": 132,
   "byteLength": 36
  },
  {
   "buffer": 0,
   "byteOffset": 168,
   "byteLength": 36
  }
 ],
 "buffers": [
  {
   "byteLength": 204,
   "uri": "data:application/octet-stream;base64,"
  }
 ]
}
