{"asset": {"version": "2.0", "generator": "basher-fixture-gen (vertex colors COLOR_0)"}, "scene": 0, "scenes": [{"nodes": [0]}], "nodes": [{"mesh": 0, "name": "VertexColorQuad"}], "meshes": [{"primitives": [{"attributes": {"POSITION": 0, "COLOR_0": 1}, "indices": 2, "material": 0}]}], "materials": [{"name": "VColorMat", "pbrMetallicRoughness": {"baseColorFactor": [1, 1, 1, 1], "metallicFactor": 0.0, "roughnessFactor": 0.8}}], "buffers": [{"uri": "data:application/octet-stream;base64,", "byteLength": 124}], "bufferViews": [{"buffer": 0, "byteOffset": 0, "byteLength": 48, "target": 34962}, {"buffer": 0, "byteOffset": 48, "byteLength": 64, "target": 34962}, {"buffer": 0, "byteOffset": 112, "byteLength": 12, "target": 34963}], "accessors": [{"bufferView": 0, "componentType": 5126, "count": 4, "type": "VEC3", "min": [-1, -1, 0], "max": [1, 1, 0]}, {"bufferView": 1, "componentType": 5126, "count": 4, "type": "VEC4"}, {"bufferView": 2, "componentType": 5123, "count": 6, "type": "SCALAR"}]}